<svg width="61" height="61" viewBox="0 0 61 61" fill="none" xmlns="http://www.w3.org/2000/svg">
<path d="M40.1362 5.08584C41.0989 5.14605 41.8416 5.97113 41.8159 6.95181V9.58217C49.463 10.3241 53.375 14.5506 53.375 22.1494V43.1697C53.375 51.6228 48.5569 55.9168 39.0754 55.9168H21.9246C12.4431 55.9168 7.625 51.6228 7.625 43.1697V22.1494C7.625 17.091 9.34891 13.4715 12.8851 11.3582L13.1332 11.2168C13.6458 10.9776 14.2471 10.9995 14.7468 11.2896C15.3298 11.6281 15.6741 12.2733 15.6356 12.955C15.597 13.6367 15.1822 14.2374 14.5649 14.5056C12.2221 15.8995 11.117 18.3275 11.117 22.1494V22.8239H43.363C44.3273 22.8239 45.1091 23.619 45.1091 24.5999C45.1091 25.5808 44.3273 26.3759 43.363 26.3759H11.117V43.1697C11.117 49.622 14.2554 52.2973 21.9246 52.3422H39.0754C46.6341 52.3422 49.8609 49.5995 49.8609 43.1473V22.1269C49.8609 16.5065 47.4076 13.7862 41.8159 13.1343V14.8429C41.687 15.7536 40.9031 16.4184 39.9992 16.3837C39.0953 16.349 38.3629 15.626 38.3018 14.708V6.79444L38.3341 6.51333C38.4061 6.14494 38.5917 5.80659 38.8675 5.54967C39.2123 5.22852 39.6693 5.06144 40.1362 5.08584ZM41.142 41.1675L41.4234 41.1856C41.9059 41.2462 42.3585 41.4675 42.7079 41.8193C43.1272 42.2416 43.363 42.8169 43.363 43.417C43.363 44.6587 42.3735 45.6652 41.1529 45.6652C39.9323 45.6652 38.9428 44.6587 38.9428 43.417C38.9428 42.1754 39.9323 41.1689 41.1529 41.1689L41.142 41.1675ZM30.5442 41.1689L30.8214 41.1864C31.9112 41.3251 32.7543 42.2709 32.7543 43.417C32.7543 44.6587 31.7648 45.6652 30.5442 45.6652C29.3236 45.6652 28.3341 44.6587 28.3341 43.417C28.3341 42.1754 29.3236 41.1689 30.5442 41.1689ZM19.947 41.1675L20.2281 41.1856C20.7107 41.2462 21.1632 41.4675 21.5126 41.8193C21.9319 42.2416 22.1678 42.8169 22.1678 43.417C22.1678 44.6587 21.1782 45.6652 19.9576 45.6652C18.737 45.6652 17.7475 44.6587 17.7475 43.417C17.7475 42.1754 18.737 41.1689 19.9576 41.1689L19.947 41.1675ZM41.142 32.0633L41.4234 32.0806C41.9059 32.1411 42.3585 32.3624 42.7079 32.7143C43.1272 33.1365 43.363 33.7118 43.363 34.312C43.363 35.5536 42.3735 36.5601 41.1529 36.5601C39.9323 36.5601 38.9428 35.5536 38.9428 34.312C38.9428 33.0703 39.9323 32.0638 41.1529 32.0638L41.142 32.0633ZM30.5442 32.0638L30.8214 32.0813C31.9112 32.22 32.7543 33.1659 32.7543 34.312C32.7543 35.5536 31.7648 36.5601 30.5442 36.5601C29.3236 36.5601 28.3341 35.5536 28.3341 34.312C28.3341 33.0703 29.3236 32.0638 30.5442 32.0638ZM19.947 32.0633L20.2281 32.0806C20.7107 32.1411 21.1632 32.3624 21.5126 32.7143C21.9319 33.1365 22.1678 33.7118 22.1678 34.312C22.1678 35.5536 21.1782 36.5601 19.9576 36.5601C18.737 36.5601 17.7475 35.5536 17.7475 34.312C17.7475 33.0703 18.737 32.0638 19.9576 32.0638L19.947 32.0633ZM20.9411 5.35405C21.8413 5.35405 22.5977 6.04192 22.6982 6.95181V9.40231H32.688C33.6523 9.40231 34.4341 10.1975 34.4341 11.1784C34.4341 12.1592 33.6523 12.9544 32.688 12.9544H22.654V14.7305C22.654 15.2054 22.467 15.6606 22.1348 15.9943C21.8026 16.3281 21.3528 16.5125 20.8859 16.5065L20.6306 16.481C19.7987 16.3348 19.1728 15.5919 19.1839 14.708V6.95181L19.2333 6.68597C19.4373 5.91123 20.131 5.35405 20.9411 5.35405Z" fill="#FCDFA5"/>
</svg>
