<svg width="35" height="35" viewBox="0 0 35 35" fill="none" xmlns="http://www.w3.org/2000/svg">
<g id="check-21 1" clip-path="url(#clip0_913_2625)">
<path id="Vector" d="M18.6064 2.20071C16.4515 2.19677 14.317 2.61853 12.3255 3.44177C10.3341 4.26501 8.52481 5.47352 7.00168 6.9979C0.603242 13.3963 0.603242 23.8045 7.00387 30.2029C13.4023 36.5991 23.8104 36.5991 30.2089 30.2029C36.6051 23.8045 36.6051 13.3963 30.2089 6.9979C28.6866 5.47355 26.8782 4.26503 24.8874 3.44177C22.8966 2.61852 20.7628 2.19675 18.6086 2.20071H18.6064ZM18.6064 4.37509C22.242 4.37509 25.8776 5.76415 28.6601 8.54446C29.9825 9.86398 31.0317 11.4314 31.7476 13.1569C32.4634 14.8825 32.8319 16.7323 32.8319 18.6004C32.8319 20.4685 32.4634 22.3183 31.7476 24.0439C31.0317 25.7694 29.9825 27.3368 28.6601 28.6563C27.3406 29.9788 25.7732 31.0279 24.0477 31.7438C22.3221 32.4596 20.4723 32.8281 18.6042 32.8281C16.736 32.8281 14.8862 32.4596 13.1607 31.7438C11.4352 31.0279 9.86776 29.9788 8.54824 28.6563C7.22582 27.3368 6.17664 25.7694 5.46079 24.0439C4.74493 22.3183 4.37646 20.4685 4.37646 18.6004C4.37646 16.7323 4.74493 14.8825 5.46079 13.1569C6.17664 11.4314 7.22582 9.86398 8.54824 8.54446C9.86736 7.22104 11.435 6.1714 13.1612 5.45588C14.8873 4.74035 16.7378 4.37305 18.6064 4.37509ZM25.0814 14.2232C24.8742 14.2427 24.6769 14.3209 24.5126 14.4485L16.5195 20.4423L12.8161 16.741C12.7152 16.6366 12.5945 16.5532 12.461 16.4959C12.3276 16.4386 12.1841 16.4084 12.0388 16.4072C11.8936 16.4059 11.7496 16.4336 11.6152 16.4886C11.4808 16.5436 11.3586 16.6248 11.2559 16.7275C11.1532 16.8302 11.072 16.9523 11.017 17.0867C10.962 17.2211 10.9344 17.3651 10.9356 17.5104C10.9369 17.6556 10.9671 17.7991 11.0244 17.9326C11.0817 18.066 11.165 18.1867 11.2695 18.2876L15.6445 22.6626C15.8304 22.8486 16.0772 22.9614 16.3395 22.9803C16.6019 22.9992 16.8623 22.9229 17.0729 22.7654L25.8229 16.2029C26.0083 16.0678 26.1465 15.8777 26.218 15.6597C26.2895 15.4417 26.2906 15.2067 26.2212 14.9881C26.1517 14.7694 26.0153 14.5781 25.8312 14.4412C25.647 14.3043 25.4245 14.2288 25.1951 14.2254C25.158 14.2235 25.1207 14.2235 25.0836 14.2254L25.0814 14.2232Z" fill="#FADB9E"/>
</g>
<defs>
<clipPath id="clip0_913_2625">
<rect width="35" height="35" fill="white"/>
</clipPath>
</defs>
</svg>
