<svg width="70" height="70" viewBox="0 0 70 70" fill="none" xmlns="http://www.w3.org/2000/svg">
<g clip-path="url(#clip0_942_1952)">
<path d="M10.6347 62.6807C11.4146 62.6884 12.1729 62.4246 12.7796 61.9344C13.3863 61.4442 13.8036 60.7583 13.9599 59.9941C14.1162 59.23 14.0017 58.4353 13.6362 57.7463C13.2707 57.0572 12.6769 56.5169 11.9566 56.2177C11.2363 55.9186 10.4343 55.8794 9.68825 56.1068C8.94219 56.3343 8.29849 56.8142 7.86752 57.4643C7.43656 58.1143 7.24517 58.8941 7.32619 59.6698C7.40721 60.4456 7.75558 61.169 8.31156 61.716C8.6163 62.0217 8.97837 62.2642 9.37701 62.4298C9.77565 62.5953 10.203 62.6806 10.6347 62.6807ZM9.87344 58.625C10.0468 58.4457 10.2771 58.3324 10.5249 58.3043C10.7727 58.2763 11.0226 58.3354 11.2316 58.4714C11.4406 58.6075 11.5957 58.812 11.6704 59.05C11.7451 59.2879 11.7346 59.5445 11.6408 59.7755C11.547 60.0066 11.3758 60.1979 11.1564 60.3164C10.937 60.435 10.6832 60.4736 10.4385 60.4255C10.1938 60.3774 9.97342 60.2456 9.81524 60.0528C9.65706 59.86 9.57091 59.6182 9.57156 59.3688C9.57429 59.0916 9.68219 58.8257 9.87344 58.625ZM64.3575 48.9103H54.6866H54.6538H48.2422L55.7978 44.5485L64.1716 39.7141C64.2897 39.6463 64.3903 39.5544 64.4975 39.48C65.5903 38.758 66.381 37.6608 66.72 36.3957C66.859 35.8442 66.9107 35.2744 66.8731 34.7069C66.8731 34.5669 66.8731 34.4247 66.8578 34.2847C66.8447 34.1797 66.8075 34.0791 66.7878 33.9741C66.6829 33.3672 66.475 32.7828 66.1731 32.246L61.1856 23.6054C61.0015 23.2872 60.7861 22.9882 60.5425 22.7129C59.7053 21.7747 58.5703 21.1537 57.3288 20.9545C56.0872 20.7553 54.815 20.99 53.7263 21.6191L45.3525 26.4535L41.0212 28.956L43.5128 24.6378L43.5281 24.6225L48.3669 16.2466C48.5069 15.9912 48.6262 15.7249 48.7234 15.4504C48.7475 15.3869 48.7869 15.3257 48.8087 15.2622C48.8481 15.1441 48.8634 15.0216 48.8963 14.9013C48.9657 14.6675 49.0191 14.4292 49.0559 14.1882C49.1884 13.159 49.0216 12.1134 48.5755 11.1766C48.1294 10.2397 47.4228 9.4512 46.5403 8.90535C46.4769 8.86598 46.4266 8.81348 46.3631 8.77629L37.7225 3.78879C37.016 3.34948 36.2122 3.09076 35.3821 3.03545C34.552 2.98013 33.721 3.12992 32.9625 3.4716C32.8334 3.52191 32.7 3.55691 32.5753 3.61598C32.4506 3.67504 32.28 3.79535 32.1378 3.88723C31.9777 3.97548 31.8222 4.07185 31.6719 4.17598C31.5581 4.26348 31.4531 4.37285 31.3569 4.4691C31.1921 4.60532 31.0358 4.75142 30.8887 4.9066C30.6814 5.14889 30.4955 5.40872 30.3331 5.68316C30.3112 5.71816 30.2828 5.7466 30.2609 5.78379L25.4069 14.1554L21.0866 21.6563V5.6416C21.0866 4.1912 20.5104 2.8002 19.4848 1.77461C18.4592 0.749022 17.0682 0.172852 15.6178 0.172852H5.64062C4.19022 0.172852 2.79922 0.749022 1.77363 1.77461C0.748045 2.8002 0.171875 4.1912 0.171875 5.6416V64.3125C0.174501 65.0941 0.345682 65.8658 0.673738 66.5752C1.00179 67.2845 1.47901 67.9147 2.07281 68.4228C2.16031 68.4994 2.25219 68.576 2.34625 68.6416C2.66538 68.8884 3.01094 69.0989 3.37656 69.2694C3.44438 69.3022 3.4925 69.3503 3.56031 69.381C4.23313 69.6661 4.95584 69.8148 5.68656 69.8185H64.3531C65.8025 69.815 67.1914 69.2377 68.2163 68.2129C69.2411 67.188 69.8184 65.7991 69.8219 64.3497V54.3747C69.8219 52.9251 69.2463 51.5347 68.2217 50.5093C67.197 49.4838 65.8071 48.9071 64.3575 48.906V48.9103ZM18.8991 64.3125C18.8991 65.1828 18.5534 66.0174 17.938 66.6327C17.3227 67.2481 16.4881 67.5938 15.6178 67.5938H5.64062C5.16057 67.5919 4.6869 67.4836 4.25375 67.2766C4.05086 67.178 3.85753 67.0608 3.67625 66.9266C3.62156 66.885 3.57125 66.8413 3.51875 66.7975C3.30551 66.6188 3.11587 66.4138 2.95437 66.1872L2.93688 66.1697C2.55951 65.6247 2.35728 64.9776 2.35719 64.3147V44.496H18.8991V64.3125ZM18.8991 42.3019H2.35938V30.45H18.8991V42.3019ZM18.8991 28.2582H2.35938V16.4063H18.8991V28.2582ZM18.8991 14.2144H2.35938V5.6416C2.35938 4.77136 2.70508 3.93676 3.32043 3.32141C3.93578 2.70605 4.77038 2.36035 5.64062 2.36035H15.6178C16.4881 2.36035 17.3227 2.70605 17.938 3.32141C18.5534 3.93676 18.8991 4.77136 18.8991 5.6416V14.2144ZM54.8134 23.5004C55.3732 23.177 56.0156 23.0253 56.6609 23.0642C57.3061 23.1031 57.9257 23.3308 58.4425 23.7191L58.4775 23.7497C58.8026 24.0044 59.0765 24.3183 59.2847 24.675V24.6882L64.27 33.3266C64.5803 33.8664 64.732 34.4829 64.7075 35.105C64.7075 35.1335 64.7075 35.1619 64.7075 35.1904C64.7075 35.2975 64.6725 35.4091 64.655 35.5119C64.6397 35.6252 64.6186 35.7377 64.5916 35.8488C64.483 36.2445 64.2996 36.6158 64.0512 36.9425C64.0359 36.9622 64.0162 36.9775 64.0009 36.995C63.7465 37.3189 63.4333 37.592 63.0778 37.8L55.6403 42.0897L54.5072 40.121L47.3891 27.7813L54.8134 23.5004ZM45.4991 28.875L53.7656 43.1879L43.4975 49.116L36.4231 36.8966L38.8294 32.7272L45.4991 28.875ZM30.4972 9.71473L32.14 6.87098C32.3522 6.50247 32.6346 6.17918 32.9712 5.91941L32.9866 5.9041C33.5014 5.51149 34.1209 5.27998 34.7671 5.23872C35.4133 5.19746 36.0572 5.34829 36.6178 5.67223L45.2606 10.6597C45.6201 10.8684 45.9364 11.1439 46.1925 11.4713C46.2078 11.491 46.2275 11.5085 46.2428 11.5282C46.7463 12.205 46.9731 13.0482 46.8772 13.8863V13.906C46.8641 14.0132 46.8291 14.1247 46.805 14.2254C46.7348 14.5446 46.6168 14.8514 46.455 15.1354L42.1675 22.5729L34.7956 18.3116L27.8503 14.2997L30.4972 9.71473ZM21.0909 26.0182L26.7566 16.1875L33.6231 20.1513L41.0737 24.4541L38.7353 28.5054L35.1456 34.7222L27.1066 30.076L21.0866 26.6044L21.0909 26.0182ZM21.0909 29.131L34.0562 36.6254L28.1281 46.9066L21.0866 42.8335L21.0909 29.131ZM21.0909 45.36L27.03 48.7813L21.0866 59.091L21.0909 45.36ZM25.5097 67.6375H19.9316C20.6063 66.7658 20.9986 65.7087 21.0559 64.6079L25.5031 62.0397L25.5097 67.6375ZM26.1178 59.1654L22.3028 61.3682L27.065 53.1191L29.445 57.2447L26.1944 59.1216C26.1594 59.1347 26.1375 59.1544 26.1112 59.1675L26.1178 59.1654ZM39.5534 67.6375H27.6972V60.7797L39.5534 53.9329V67.6375ZM31.3372 56.1444L28.3294 50.9272L35.1609 39.0907L41.6031 50.2185L31.3372 56.1444ZM53.5928 67.6397H41.7366V52.6707L44.4556 51.1H53.5928V67.6397ZM67.6366 64.3585C67.6366 65.2287 67.2909 66.0633 66.6755 66.6787C66.0602 67.294 65.2256 67.6397 64.3553 67.6397H55.7803V51.1H64.3531C65.2234 51.1 66.058 51.4457 66.6733 52.0611C67.2887 52.6764 67.6344 53.511 67.6344 54.3813L67.6366 64.3585Z" fill="#FADB9E"/>
</g>
<defs>
<clipPath id="clip0_942_1952">
<rect width="70" height="70" fill="white"/>
</clipPath>
</defs>
</svg>
