<svg width="92" height="92" viewBox="0 0 92 92" fill="none" xmlns="http://www.w3.org/2000/svg">
<path d="M68.8801 44.1172L79.5728 45.9088C79.6468 45.9214 79.8073 45.9346 79.882 45.9346C80.3748 45.9346 80.8392 45.7437 81.1907 45.3968C81.5474 45.0441 81.7436 44.5737 81.7436 44.0723V42.7742C81.7436 37.3327 77.3161 32.9053 71.8747 32.9053H70.5871C68.4368 32.9053 66.6875 34.6546 66.6875 36.8049V41.527C66.6875 42.8145 67.609 43.9038 68.8801 44.1172ZM69.3934 36.8049C69.3934 36.1469 69.9291 35.6111 70.5871 35.6111H71.8746C75.8245 35.6111 79.0377 38.8244 79.0377 42.7742V43.0814L69.3934 41.5269L69.3934 36.8049Z" fill="#FADB9E"/>
<path d="M87.9266 56.6588H87.4662C87.8665 52.1966 87.748 49.3305 87.7507 49.472C87.3586 28.8769 75.1826 28.2821 73.7954 28.2821C73.6672 28.2821 73.5774 28.286 73.5555 28.2874H64.3228V23.2026C64.3228 20.9433 62.4843 19.1055 60.225 19.1055H5.45464C3.19534 19.1055 1.3575 20.9433 1.3575 23.2026C1.35691 27.3932 1.35971 8.02392 1.35156 64.1813C1.35156 64.9284 1.95734 65.5342 2.7045 65.5342H8.18167C8.5654 69.6563 12.0404 72.8941 16.261 72.8941C20.4816 72.8941 23.9566 69.6563 24.3403 65.5342H66.6158C66.9995 69.6563 70.4745 72.8941 74.6951 72.8941C78.9157 72.8941 82.3907 69.6563 82.7744 65.5342H87.9266C89.4262 65.5342 90.6457 64.3147 90.6457 62.8151V59.3786C90.6457 57.879 89.4262 56.6588 87.9266 56.6588ZM85.0486 50.8547C85.0471 51.3042 85.0626 51.0073 85.0257 52.2076H82.244V50.8547H85.0486ZM73.5853 30.9932C73.6163 30.9932 73.7643 30.9906 73.7954 30.9879C75.5664 30.9879 84.2243 31.8402 84.9963 48.1488C84.2487 48.315 79.5381 47.2201 79.5381 50.8546V52.2076C79.5381 53.6999 80.7516 54.9135 82.244 54.9135H84.8791C84.8397 55.4959 84.8098 56.0936 84.7569 56.6588H74.6951H64.3228V30.9932H73.5853ZM66.8239 62.8283H24.1322C23.8519 61.683 23.1617 60.3317 22.2924 59.3647C34.6102 59.3647 57.2852 59.3647 68.6637 59.3647C67.7857 60.3408 67.111 61.6581 66.8239 62.8283ZM4.06338 23.2026C4.06338 22.4356 4.68767 21.8113 5.45464 21.8113H60.225C60.9926 21.8113 61.6169 22.4356 61.6169 23.2026C61.6164 26.6234 61.6189 10.8105 61.6116 56.6582H4.06338V23.2026ZM4.05744 59.3647H10.2302C9.35188 60.3409 8.67417 61.672 8.39043 62.8283H4.05744V59.3647ZM16.261 70.1882C13.277 70.1882 10.8492 67.7605 10.8492 64.7765C10.8492 64.6391 10.8585 64.501 10.8856 64.2916C11.1122 61.5289 13.4732 59.3647 16.261 59.3647C19.2768 59.3647 21.6728 61.8832 21.6728 64.7765C21.6728 67.7605 19.245 70.1882 16.261 70.1882ZM74.6951 70.1882C71.7111 70.1882 69.2833 67.7605 69.2833 64.7765C69.2833 61.8065 71.7248 59.3647 74.6951 59.3647C77.6821 59.3647 80.1069 61.8588 80.1069 64.7765C80.1069 67.7605 77.6791 70.1882 74.6951 70.1882ZM87.9398 62.8151C87.9398 62.8257 87.9372 62.8283 87.9266 62.8283H82.5657C82.2584 61.5762 81.5403 60.2728 80.7312 59.3713L87.9398 59.3786V62.8151Z" fill="#FADB9E"/>
<path d="M74.693 61.3938C72.8281 61.3938 71.3107 62.9112 71.3107 64.7761C71.3107 66.641 72.8281 68.1585 74.693 68.1585C76.558 68.1585 78.0754 66.641 78.0754 64.7761C78.0754 62.9112 76.5579 61.3938 74.693 61.3938ZM74.693 65.4526C74.3198 65.4526 74.0166 65.1494 74.0166 64.7761C74.0166 64.4029 74.3198 64.0996 74.693 64.0996C75.0663 64.0996 75.3695 64.4029 75.3695 64.7761C75.3695 65.1494 75.0663 65.4526 74.693 65.4526ZM16.2642 61.3938C14.3993 61.3938 12.8819 62.9112 12.8819 64.7761C12.8819 66.641 14.3993 68.1585 16.2642 68.1585C18.1291 68.1585 19.6466 66.641 19.6466 64.7761C19.6466 62.9112 18.1291 61.3938 16.2642 61.3938ZM16.2642 65.4526C15.891 65.4526 15.5877 65.1494 15.5877 64.7761C15.5877 64.4029 15.891 64.0996 16.2642 64.0996C16.6375 64.0996 16.9407 64.4029 16.9407 64.7761C16.9407 65.1494 16.6375 65.4526 16.2642 65.4526ZM12.1572 24.5552H8.77482C8.02765 24.5552 7.42188 25.161 7.42188 25.9081C7.42188 26.6553 8.02765 27.2611 8.77482 27.2611H12.1572C12.9043 27.2611 13.5101 26.6553 13.5101 25.9081C13.5101 25.161 12.9043 24.5552 12.1572 24.5552ZM22.9807 24.5552H16.8925C16.1453 24.5552 15.5395 25.161 15.5395 25.9081C15.5395 26.6553 16.1453 27.2611 16.8925 27.2611H22.9807C23.7279 27.2611 24.3336 26.6553 24.3336 25.9081C24.3336 25.161 23.7278 24.5552 22.9807 24.5552Z" fill="#FADB9E"/>
</svg>
