<svg width="78" height="78" viewBox="0 0 78 78" fill="none" xmlns="http://www.w3.org/2000/svg">
<path d="M54.7219 61.0594H51.4313C50.8219 61.0594 50.3344 60.5719 50.3344 59.9625C50.3344 59.3531 50.8219 58.8656 51.4313 58.8656H53.5031V3.4125H11.9438V58.7438H31.9313C32.5406 58.7438 33.0281 59.2312 33.0281 59.8406C33.0281 60.45 32.5406 60.9375 31.9313 60.9375H10.725C10.2375 60.9375 9.75 60.45 9.75 59.8406V2.31562C9.75 1.70625 10.2375 1.21875 10.725 1.21875H54.6C55.2094 1.21875 55.6969 1.70625 55.6969 2.31562V59.9625C55.8188 60.45 55.3313 61.0594 54.7219 61.0594Z" fill="url(#paint0_linear_942_1937)"/>
<path d="M40.0942 29.4937H15.5973C14.9879 29.4937 14.5004 29.0062 14.5004 28.3968C14.5004 27.7874 14.9879 27.2999 15.5973 27.2999H40.0942C40.7036 27.2999 41.1911 27.7874 41.1911 28.3968C41.1911 29.0062 40.7036 29.4937 40.0942 29.4937ZM40.0942 34.4905H15.5973C14.9879 34.4905 14.5004 34.003 14.5004 33.3937C14.5004 32.7843 14.9879 32.2968 15.5973 32.2968H40.0942C40.7036 32.2968 41.1911 32.7843 41.1911 33.3937C41.1911 34.003 40.7036 34.4905 40.0942 34.4905ZM49.3567 39.6093H15.5973C14.9879 39.6093 14.5004 39.1218 14.5004 38.5124C14.5004 37.903 14.9879 37.4155 15.5973 37.4155H49.3567C49.9661 37.4155 50.4536 37.903 50.4536 38.5124C50.4536 39.1218 49.9661 39.6093 49.3567 39.6093ZM49.3567 44.6061H15.5973C14.9879 44.6061 14.5004 44.1187 14.5004 43.5093C14.5004 42.8999 14.9879 42.4124 15.5973 42.4124H49.3567C49.9661 42.4124 50.4536 42.8999 50.4536 43.5093C50.4536 44.1187 49.9661 44.6061 49.3567 44.6061ZM30.1004 49.7249H15.5973C14.9879 49.7249 14.5004 49.2374 14.5004 48.628C14.5004 48.0187 14.9879 47.5312 15.5973 47.5312H30.1004C30.7098 47.5312 31.1973 48.0187 31.1973 48.628C31.1973 49.2374 30.7098 49.7249 30.1004 49.7249ZM30.1004 54.8437H15.5973C14.9879 54.8437 14.5004 54.3561 14.5004 53.7468C14.5004 53.1374 14.9879 52.6499 15.5973 52.6499H30.1004C30.7098 52.6499 31.1973 53.1374 31.1973 53.7468C31.1973 54.3561 30.7098 54.8437 30.1004 54.8437ZM37.2911 21.5718L36.6817 21.328C36.1942 21.2062 35.5848 21.0843 33.2692 16.2093L35.2192 15.2343C35.8286 16.5749 36.6817 17.9155 37.1692 18.7687C39.6067 17.1843 46.7973 12.6749 47.1629 12.4312L48.3817 14.3812C45.5786 16.2093 38.0223 20.9624 37.6567 21.2062L37.2911 21.5718ZM28.8817 23.7655H14.3786L14.2567 22.7905C13.5254 19.4999 13.7692 17.0624 15.1098 15.3562C16.6942 13.4062 18.7661 13.4062 18.8879 13.4062H19.4973L19.8629 14.1374C20.5942 15.7218 21.3254 17.1843 21.8129 18.5249C22.3004 17.3062 23.0317 15.7218 23.6411 14.1374L24.0067 13.4062L24.8598 13.528C26.8098 13.7718 28.2723 14.503 29.1254 15.8437C30.9536 18.6468 29.2473 22.9124 29.1254 23.0343L28.8817 23.7655ZM22.7879 21.5718H27.1754C27.5411 20.353 27.9067 18.2812 27.0536 17.0624C26.6879 16.453 26.0786 16.0874 25.2254 15.8437C23.8848 19.2562 23.1536 20.8405 22.7879 21.5718ZM16.2067 21.5718H20.8379C20.4723 20.9624 19.8629 19.4999 18.2786 15.8437C17.7911 15.9655 17.3036 16.3312 16.8161 16.8187C15.9629 17.7937 15.8411 19.378 16.2067 21.5718Z" fill="url(#paint1_linear_942_1937)"/>
<path d="M21.8125 14.0154C19.1312 14.0154 17.5469 10.2373 17.5469 8.2873C17.5469 5.97168 19.4969 4.02168 21.8125 4.02168C24.1281 4.02168 26.2 5.97168 26.2 8.40918C26.0781 10.3592 24.4938 14.0154 21.8125 14.0154ZM21.8125 6.3373C20.5938 6.3373 19.8625 7.3123 19.8625 8.2873C19.8625 9.7498 21.0812 11.8217 21.8125 11.8217C22.5438 11.8217 23.7625 9.7498 23.7625 8.2873C23.8844 7.06855 22.9094 6.3373 21.8125 6.3373ZM58.7406 48.2623C58.1313 48.2623 57.6438 47.7748 57.6438 47.1654L57.5219 6.94668C57.5219 5.48418 58.0094 4.26543 59.1062 3.29043C60.0812 2.31543 61.3 1.70605 62.7625 1.70605H63.1281C64.5906 1.70605 65.8094 2.31543 66.7844 3.29043C67.7594 4.26543 68.3687 5.48418 68.3687 6.94668L68.4906 47.0436C68.4906 47.4092 68.3688 47.6529 68.125 47.8967C67.8812 48.1404 67.6375 48.2623 67.2719 48.2623H58.7406ZM63.0063 3.8998H62.6406C61.7875 3.8998 61.0563 4.26543 60.5688 4.75293C59.8375 5.3623 59.7156 6.09355 59.7156 6.94668L59.8375 46.0686H66.0531L65.9312 6.94668C65.9312 6.09355 65.5656 5.3623 65.0781 4.8748C64.4688 4.14355 63.7375 3.8998 63.0063 3.8998Z" fill="url(#paint2_linear_942_1937)"/>
<path d="M63.0094 60.572C62.5219 60.572 62.0344 60.2063 61.9125 59.8407L57.6469 47.5313C57.525 47.1657 57.525 46.8001 57.7688 46.4345C58.0125 46.0688 58.3781 45.947 58.7438 45.947H67.275C67.6406 45.947 68.0062 46.0688 68.25 46.4345C68.4938 46.6782 68.4937 47.1657 68.3719 47.5313L64.1062 59.9626C63.8625 60.2063 63.4969 60.572 63.0094 60.572ZM60.2063 48.2626L62.8875 56.0626L65.4469 48.1407L60.2063 48.2626ZM63.0094 44.2407C62.4 44.2407 61.9125 43.7532 61.9125 43.1439V7.55635C61.9125 6.94697 62.4 6.45947 63.0094 6.45947C63.6188 6.45947 64.1062 6.94697 64.1062 7.55635V43.1439C63.9844 43.7532 63.6188 44.2407 63.0094 44.2407ZM49.3594 76.7813L44.85 69.2251C44.6062 69.2251 44.3625 69.347 44.2406 69.7126C43.7531 70.8095 42.7781 71.5407 41.5594 71.5407C40.3406 71.5407 39.3656 70.8095 38.8781 69.7126C38.7562 69.4688 38.6344 69.347 38.3906 69.347L34.0031 76.7813L32.6625 72.1501L28.0312 73.247L32.5406 65.6907C31.4438 65.6907 30.5906 64.9595 30.1031 63.8626C29.6156 62.7657 29.8594 61.6689 30.7125 60.8157C30.8344 60.6939 30.9562 60.572 30.9562 60.3282C30.9562 60.2063 30.9563 59.9626 30.5906 59.7188C29.6156 59.2313 29.1281 58.2563 29.1281 57.2813C29.1281 55.8188 29.9813 54.8438 31.3219 54.4782C31.6875 54.3563 31.8094 54.1126 31.8094 53.8688C31.8094 53.747 31.8094 53.6251 31.6875 53.5032C31.4437 53.0157 31.3219 52.6501 31.3219 52.1626C31.3219 51.1876 31.8094 50.3345 32.5406 49.847C33.2719 49.2376 34.3687 49.1157 35.1 49.4813C35.4656 49.6032 35.9531 49.3595 35.9531 48.872C36.075 47.2876 37.4156 46.3126 38.7562 46.3126C39.7312 46.3126 40.4625 46.6782 40.95 47.4095C41.0719 47.6532 41.3156 47.6532 41.4375 47.6532C41.5594 47.6532 41.8031 47.6532 41.925 47.4095C42.6563 46.4345 43.7531 46.0688 44.9719 46.4345C46.1906 46.8001 46.8 47.7751 46.9219 48.872C46.9219 49.3595 47.4094 49.6032 47.775 49.4813C49.1156 48.9938 50.4562 49.6032 51.1875 50.7001C51.675 51.5532 51.7969 52.5282 51.3094 53.5032C51.1875 53.6251 51.1875 53.747 51.1875 53.747C51.1875 53.9907 51.3094 54.3563 51.675 54.3563C53.0156 54.722 53.8688 55.9407 53.8688 57.1595C53.8688 58.2564 53.2594 59.1095 52.4062 59.597C52.1625 59.7189 52.0406 59.9626 52.0406 60.2064C52.0406 60.3282 52.0406 60.4501 52.1625 60.6938C52.65 61.3032 53.0156 62.0345 53.0156 62.6439C53.0156 63.497 52.65 64.2282 52.0406 64.7157C51.5531 65.2032 50.9437 65.447 50.3344 65.447L54.8438 73.0032L50.2125 71.9063L49.3594 76.7813ZM34.2469 69.5907L34.7344 71.297L37.05 67.2751L37.4156 67.1532C37.6594 67.0313 38.025 67.0313 38.2687 67.0313C39.4875 67.0313 40.4625 67.7626 40.95 68.8595C41.0719 69.2251 41.4375 69.2251 41.5594 69.2251C41.6812 69.2251 42.0469 69.2251 42.1687 68.8595C42.6562 67.7626 43.7531 67.0313 44.85 67.0313C45.3375 67.0313 45.825 67.1532 46.1906 67.397L46.4344 67.5189L48.6281 71.297L49.1156 69.5907L50.8219 69.9564L47.775 64.7157L48.5062 64.1063C48.9937 63.6188 49.725 63.3751 50.3344 63.3751H50.4563C50.7 63.3751 50.8219 63.3751 50.9437 63.2532C51.0656 63.1314 51.1875 62.8876 51.1875 62.7657C51.1875 62.6438 51.0656 62.4001 50.9437 62.2782C50.4562 61.7907 50.0906 61.0595 50.0906 60.3282C50.0906 59.2313 50.7 58.3782 51.5531 57.8907C51.7969 57.7688 51.9187 57.5251 51.9187 57.2813C51.9187 57.0376 51.7969 56.672 51.4313 56.672C50.0906 56.3063 49.2375 55.0876 49.2375 53.8688C49.2375 53.3813 49.3594 53.0157 49.6031 52.5282C49.725 52.2845 49.725 52.0407 49.6031 51.9188C49.4813 51.6751 49.1156 51.5532 48.8719 51.6751C48.6281 51.797 48.2625 51.797 47.8969 51.797C46.3125 51.797 45.2156 50.5782 45.0938 49.2376C45.0938 48.872 44.7281 48.7501 44.6062 48.6282C44.4844 48.6282 44.1188 48.5063 43.875 48.872C43.2656 49.6032 42.4125 49.9688 41.6813 49.9688C40.8281 49.9688 39.975 49.6032 39.4875 48.872C39.3656 48.7501 39.2438 48.6282 39 48.6282C38.7562 48.6282 38.3906 48.7501 38.3906 49.2376C38.2687 50.822 36.9281 51.797 35.5875 51.797C35.2219 51.797 34.8562 51.797 34.6125 51.6751C34.3687 51.5532 34.2469 51.6751 34.0031 51.797C33.7594 51.9188 33.7594 52.1626 33.7594 52.4063C33.7594 52.5282 33.7594 52.6501 33.8812 52.772C34.125 53.2595 34.2469 53.6251 34.2469 54.1126C34.2469 55.4532 33.2719 56.5501 32.0531 56.9157C31.5656 57.0376 31.5656 57.5251 31.5656 57.5251C31.5656 57.7688 31.6875 58.0126 31.9313 58.1345C32.9063 58.622 33.3937 59.597 33.3937 60.572C33.3937 61.3032 33.15 62.0345 32.5406 62.522C32.2969 62.7657 32.2969 63.1314 32.4188 63.2532C32.4188 63.3751 32.6625 63.6188 33.0281 63.6188C34.0031 63.6188 34.8562 63.9845 35.3438 64.5938L35.8312 65.2032L32.9062 70.2001L34.2469 69.5907Z" fill="url(#paint3_linear_942_1937)"/>
<path d="M41.5609 65.9344C37.6609 65.9344 34.4922 62.7656 34.4922 58.8656C34.4922 54.9656 37.6609 51.7969 41.5609 51.7969C45.4609 51.7969 48.6297 54.9656 48.6297 58.8656C48.6297 62.7656 45.4609 65.9344 41.5609 65.9344ZM41.5609 54.1125C38.8797 54.1125 36.6859 56.1844 36.6859 58.9875C36.6859 61.6688 38.7578 63.8625 41.5609 63.8625C44.3641 63.8625 46.4359 61.7906 46.4359 58.9875C46.4359 56.1844 44.3641 54.1125 41.5609 54.1125Z" fill="url(#paint4_linear_942_1937)"/>
<defs>
<linearGradient id="paint0_linear_942_1937" x1="32.7328" y1="1.21875" x2="32.7328" y2="61.0594" gradientUnits="userSpaceOnUse">
<stop stop-color="#FADB9E"/>
<stop offset="1" stop-color="#F0CB85"/>
</linearGradient>
<linearGradient id="paint1_linear_942_1937" x1="32.1526" y1="12.4312" x2="32.1526" y2="54.8437" gradientUnits="userSpaceOnUse">
<stop stop-color="#FADB9E"/>
<stop offset="1" stop-color="#F0CB85"/>
</linearGradient>
<linearGradient id="paint2_linear_942_1937" x1="43.0188" y1="1.70605" x2="43.0188" y2="48.2623" gradientUnits="userSpaceOnUse">
<stop stop-color="#FADB9E"/>
<stop offset="1" stop-color="#F0CB85"/>
</linearGradient>
<linearGradient id="paint3_linear_942_1937" x1="48.2416" y1="6.45947" x2="48.2416" y2="76.7813" gradientUnits="userSpaceOnUse">
<stop stop-color="#FADB9E"/>
<stop offset="1" stop-color="#F0CB85"/>
</linearGradient>
<linearGradient id="paint4_linear_942_1937" x1="41.5609" y1="51.7969" x2="41.5609" y2="65.9344" gradientUnits="userSpaceOnUse">
<stop stop-color="#FADB9E"/>
<stop offset="1" stop-color="#F0CB85"/>
</linearGradient>
</defs>
</svg>
