<svg width="78" height="78" viewBox="0 0 78 78" fill="none" xmlns="http://www.w3.org/2000/svg">
<path d="M69.3362 32.0774L72.7487 23.7533C72.8828 23.4365 72.8706 23.0708 72.7244 22.7662C72.5781 22.4615 72.2978 22.2177 71.9687 22.1202L63.3278 19.6096L62.7916 10.6274C62.7672 10.2862 62.6087 9.96928 62.3406 9.74991C62.0725 9.53053 61.7191 9.44522 61.3778 9.49397L52.5053 10.9565L48.13 3.09553C47.9594 2.79085 47.6791 2.58366 47.3378 2.49835C47.0087 2.41303 46.6431 2.49835 46.3628 2.69335L39.0137 7.88522L31.6647 2.69335C31.3844 2.49835 31.0309 2.42522 30.6897 2.49835C30.3484 2.57147 30.0681 2.79085 29.8975 3.09553L25.5222 10.9565L16.6497 9.48178C16.3206 9.42085 15.9672 9.51835 15.6869 9.73772C15.4187 9.9571 15.2481 10.274 15.2359 10.6152L14.6997 19.5974L6.05875 22.108C5.72969 22.2055 5.44937 22.4371 5.30312 22.754C5.15687 23.0708 5.14469 23.4243 5.27875 23.7412L8.69125 32.0652L1.98813 38.098C1.73219 38.3296 1.58594 38.6587 1.58594 38.9999C1.58594 39.3412 1.73219 39.6702 1.98813 39.9018L8.66687 45.9224L5.25437 54.2465C5.12031 54.5633 5.1325 54.929 5.27875 55.2337C5.425 55.5383 5.70531 55.7821 6.03437 55.8796L14.6753 58.3902L15.2116 67.3724C15.2359 67.7137 15.3944 68.0305 15.6625 68.2499C15.9306 68.4693 16.2841 68.5546 16.6253 68.5058L25.4978 67.0433L29.8731 74.9043C30.0437 75.209 30.3241 75.4162 30.6653 75.5015C30.9944 75.5868 31.36 75.5015 31.6403 75.3065L38.9894 70.1146L46.3384 75.3065C46.5456 75.4527 46.7894 75.5258 47.0453 75.5258C47.1306 75.5258 47.2281 75.5258 47.3134 75.4893C47.6547 75.4162 47.935 75.1968 48.1056 74.8921L52.4809 67.0312L61.3534 68.5058C61.6825 68.5668 62.0359 68.4693 62.3162 68.2499C62.5844 68.0305 62.755 67.7137 62.7672 67.3724L63.3034 58.3902L71.9444 55.8796C72.2734 55.7821 72.5537 55.5505 72.7 55.2337C72.8462 54.9168 72.8584 54.5633 72.7244 54.2465L69.3119 45.9224L75.9906 39.9018C76.2466 39.6702 76.3928 39.3412 76.3928 38.9999C76.3928 38.6587 76.2466 38.3296 75.9906 38.098L69.3119 32.0774H69.3362ZM67.0694 44.6915C66.6916 45.0327 66.5575 45.5812 66.7647 46.0565L69.9944 53.9174L61.8287 56.294C61.3291 56.4402 60.9878 56.879 60.9512 57.3908L60.4394 65.8733L52.0544 64.484C51.5425 64.3987 51.0428 64.6424 50.7869 65.0933L46.6553 72.5155L39.7084 67.6162C39.5012 67.4699 39.2575 67.3968 39.0016 67.3968C38.7456 67.3968 38.5141 67.4699 38.2947 67.6162L31.3478 72.5155L27.2162 65.0933C26.9725 64.6424 26.4606 64.3987 25.9487 64.484L17.5637 65.8733L17.0519 57.3908C17.0153 56.879 16.6741 56.4402 16.1744 56.294L8.02094 53.9174L11.2384 46.0565C11.4334 45.5812 11.3116 45.0327 10.9337 44.6915L4.62062 38.9999L10.9337 33.3083C11.3116 32.9671 11.4456 32.4187 11.2384 31.9433L8.00875 24.0824L16.1744 21.7058C16.6741 21.5596 17.0153 21.1208 17.0519 20.609L17.5637 12.1265L25.9487 13.5158C26.4606 13.6133 26.9603 13.3574 27.2162 12.9065L31.3478 5.48428L38.2947 10.3837C38.7212 10.6762 39.2819 10.6762 39.6962 10.3837L46.6431 5.48428L50.7747 12.9065C51.0306 13.3574 51.5303 13.6012 52.0422 13.5158L60.4272 12.1265L60.9391 20.609C60.9756 21.1208 61.3169 21.5596 61.8166 21.7058L69.97 24.0824L66.7525 31.9433C66.5575 32.4187 66.6794 32.9671 67.0572 33.3083L73.3703 38.9999L67.0572 44.6915H67.0694Z" fill="#FADB9E"/>
<path d="M39 14.625C25.5572 14.625 14.625 25.5572 14.625 39C14.625 42.7903 15.5147 46.3612 17.0625 49.5544V49.9688H17.2575C21.2794 57.9028 29.5059 63.375 39 63.375C52.4428 63.375 63.375 52.4428 63.375 39C63.375 25.5572 52.4428 14.625 39 14.625ZM17.0625 39C17.0625 37.7569 17.1966 36.5381 17.3916 35.3438H26.8125V47.5312H18.7931C17.6841 44.9109 17.0625 42.0225 17.0625 39ZM39 60.9375C30.9075 60.9375 23.8266 56.5134 20.0363 49.9688H28.0312C28.5553 49.9688 28.9941 49.6397 29.1647 49.1766L29.7619 49.5544C31.4194 50.6269 33.3328 51.1875 35.3072 51.1875H48.5062C51.3337 51.1875 53.625 48.8963 53.625 46.0809V36.5991C53.625 34.1494 51.6263 32.1506 49.1644 32.1506H42.8878C42.4491 32.1506 42.0834 31.7972 42.0834 31.3584V25.6181C42.0834 23.5828 40.4259 21.9375 38.3906 21.9375H36.9281C34.8928 21.9375 33.2353 23.595 33.2353 25.6181V30.6394C33.2353 31.6875 32.5163 32.6137 31.4925 32.8819L29.0794 33.5156C28.8722 33.15 28.4944 32.8819 28.0312 32.8819H17.94C20.5847 23.7412 29.0184 17.0381 39 17.0381C51.09 17.0381 60.9375 26.8856 60.9375 38.9756C60.9375 51.0656 51.09 60.9131 39 60.9131V60.9375ZM42.8878 34.5881H49.1644C50.2734 34.5881 51.1631 35.4656 51.1875 36.5625H45.0938V39H51.1875V40.2188H45.0938V42.6562H51.1875V43.875H45.0938V46.3125H51.1631C51.0412 47.6775 49.9078 48.75 48.5062 48.75H35.3072C33.8081 48.75 32.3456 48.3234 31.0903 47.5069L29.2622 46.3247V36.0141L32.1263 35.2584C34.2103 34.6978 35.6728 32.8087 35.6728 30.6516V25.6303C35.6728 24.9478 36.2334 24.3872 36.9281 24.3872H38.3906C39.0853 24.3872 39.6459 24.9478 39.6459 25.6303V31.3706C39.6459 33.15 41.0962 34.6003 42.8878 34.6003V34.5881Z" fill="#FADB9E"/>
</svg>
