<svg width="93" height="93" viewBox="0 0 93 93" fill="none" xmlns="http://www.w3.org/2000/svg">
<g clip-path="url(#clip0_942_1957)">
<path d="M46.973 83.6184C46.7517 83.537 46.5131 83.5143 46.2804 83.5526C46.0477 83.5909 45.829 83.6889 45.6454 83.8369C45.4619 83.985 45.3199 84.1781 45.2333 84.3974C45.1466 84.6167 45.1183 84.8547 45.1511 85.0882C45.1838 85.3217 45.2766 85.5428 45.4203 85.7297C45.5639 85.9167 45.7536 86.0633 45.9708 86.1551C46.188 86.2469 46.4253 86.2808 46.6595 86.2536C46.8937 86.2264 47.1169 86.1389 47.3072 85.9997C47.5053 85.8535 47.6601 85.6564 47.7552 85.4292C47.8502 85.2021 47.8819 84.9534 47.8468 84.7097C47.8118 84.466 47.7114 84.2363 47.5562 84.0451C47.4011 83.8539 47.197 83.7083 46.9657 83.6239L46.973 83.6184ZM21.269 49.8332C21.0957 49.8779 20.9329 49.9563 20.7898 50.0639C20.6468 50.1715 20.5264 50.3063 20.4355 50.4605C20.3445 50.6146 20.2849 50.7852 20.2599 50.9625C20.235 51.1397 20.2452 51.3201 20.29 51.4934C20.2908 51.5019 20.2908 51.5104 20.29 51.5189C20.3828 51.866 20.6096 52.1621 20.9205 52.3422C21.2314 52.5223 21.601 52.5718 21.9484 52.4797C22.2892 52.3796 22.5777 52.1509 22.7528 51.8418C22.9279 51.5328 22.976 51.1678 22.8868 50.824C22.7976 50.4801 22.5781 50.1845 22.2749 49.9996C21.9716 49.8147 21.6082 49.755 21.2618 49.8332H21.269ZM24.7202 59.9706C24.5574 60.0463 24.4112 60.1535 24.29 60.2859C24.1688 60.4183 24.0749 60.5733 24.0138 60.7421C23.9527 60.9109 23.9256 61.0901 23.9339 61.2694C23.9423 61.4488 23.9861 61.6247 24.0627 61.787L24.0772 61.8197C24.188 62.0487 24.3611 62.2417 24.5767 62.3767C24.7923 62.5117 25.0416 62.583 25.296 62.5826C25.5 62.582 25.7013 62.5356 25.8851 62.447C26.0689 62.3583 26.2305 62.2297 26.358 62.0704C26.4856 61.9111 26.5758 61.7253 26.6221 61.5266C26.6684 61.3278 26.6695 61.1213 26.6255 60.922C26.5815 60.7228 26.4934 60.5359 26.3677 60.3752C26.242 60.2145 26.0819 60.084 25.8992 59.9932C25.7164 59.9025 25.5157 59.8538 25.3116 59.8509C25.1076 59.8479 24.9055 59.8907 24.7202 59.9761V59.9706ZM21.269 40.5169V40.4788C21.256 40.2999 21.2079 40.1253 21.1274 39.965C21.047 39.8046 20.9357 39.6618 20.8 39.5445C20.6643 39.4271 20.5068 39.3377 20.3366 39.2813C20.1663 39.2248 19.9866 39.2024 19.8077 39.2154C19.6288 39.2284 19.4542 39.2766 19.2939 39.357C19.1336 39.4375 18.9907 39.5488 18.8734 39.6844C18.7561 39.8201 18.6667 39.9776 18.6102 40.1479C18.5538 40.3181 18.5314 40.4978 18.5444 40.6767L19.9031 40.5986L18.5444 40.6804C18.5648 41.0269 18.7168 41.3524 18.9694 41.5905C19.222 41.8286 19.556 41.9611 19.9031 41.9609H19.983C20.1622 41.951 20.3376 41.9057 20.4992 41.8278C20.6608 41.7498 20.8055 41.6407 20.9248 41.5067C21.0441 41.3727 21.1358 41.2164 21.1946 41.0469C21.2533 40.8773 21.278 40.6978 21.2672 40.5187L21.269 40.5169ZM30.0314 69.2779C29.8875 69.3842 29.766 69.5179 29.6738 69.6713C29.5817 69.8247 29.5207 69.9948 29.4944 70.1718C29.4681 70.3488 29.4769 70.5292 29.5204 70.7028C29.564 70.8764 29.6413 71.0397 29.748 71.1833L29.7589 71.1978C29.8849 71.368 30.0493 71.506 30.2386 71.6007C30.428 71.6953 30.637 71.744 30.8488 71.7427C31.0645 71.7422 31.277 71.6907 31.469 71.5922C31.661 71.4937 31.8269 71.3512 31.9531 71.1763C32.0794 71.0014 32.1624 70.799 32.1955 70.5858C32.2285 70.3726 32.2105 70.1546 32.1431 69.9497C32.0756 69.7448 31.9606 69.5588 31.8074 69.4069C31.6542 69.255 31.4672 69.1415 31.2617 69.0758C31.0562 69.0101 30.8381 68.994 30.6252 69.0288C30.4123 69.0636 30.2107 69.1483 30.0368 69.2761L30.0314 69.2779ZM54.2259 14.5314C54.5476 14.6822 54.9154 14.7013 55.251 14.5848C55.5866 14.4682 55.8634 14.2252 56.0224 13.9075C56.1814 13.5898 56.2099 13.2225 56.102 12.884C55.9941 12.5456 55.7582 12.2626 55.4447 12.0956H55.4302C55.2708 12.016 55.0973 11.9687 54.9196 11.9564C54.7419 11.9441 54.5635 11.967 54.3947 12.0239C54.2259 12.0808 54.07 12.1705 53.9359 12.2878C53.8019 12.4052 53.6924 12.5479 53.6138 12.7077C53.4547 13.031 53.4297 13.404 53.5444 13.7456C53.659 14.0871 53.904 14.3696 54.2259 14.5314ZM46.0521 9.67976C46.1993 9.73368 46.3548 9.76134 46.5116 9.7615C46.7241 9.76257 46.934 9.71396 47.1244 9.61957C47.3148 9.52517 47.4805 9.38759 47.6083 9.2178C47.7361 9.04801 47.8225 8.85071 47.8605 8.64162C47.8986 8.43253 47.8873 8.21745 47.8275 8.01352C47.7676 7.80958 47.661 7.62245 47.5161 7.46703C47.3711 7.3116 47.1919 7.1922 46.9926 7.11833C46.7933 7.04446 46.5796 7.01817 46.3683 7.04156C46.1571 7.06495 45.9543 7.13737 45.776 7.25305C45.5609 7.39036 45.3889 7.58546 45.2795 7.81601C45.1702 8.04656 45.128 8.30323 45.1578 8.55665C45.1875 8.81007 45.288 9.04999 45.4478 9.24894C45.6076 9.44788 45.8201 9.59782 46.0612 9.68158L46.0521 9.67976ZM38.1816 14.6767C38.3871 14.677 38.5901 14.6307 38.7753 14.5415C38.9604 14.4522 39.123 14.3221 39.2507 14.1611C39.3785 14 39.4681 13.8122 39.513 13.6116C39.5578 13.411 39.5567 13.2028 39.5097 13.0027C39.4626 12.8026 39.3709 12.6157 39.2414 12.4561C39.1119 12.2964 38.9479 12.1682 38.7618 12.0809C38.5757 11.9937 38.3722 11.9497 38.1667 11.9522C37.9611 11.9547 37.7588 12.0038 37.5749 12.0956H37.5604C37.2872 12.2341 37.0687 12.4608 36.9404 12.7389C36.8121 13.0171 36.7813 13.3304 36.8532 13.6282C36.9251 13.9259 37.0953 14.1907 37.3364 14.3797C37.5775 14.5687 37.8753 14.6708 38.1816 14.6694V14.6767ZM19.8014 20.5001C20.0047 20.5001 20.2055 20.4547 20.3891 20.3673C20.5727 20.2799 20.7345 20.1527 20.8627 19.9949C20.9909 19.8371 21.0824 19.6527 21.1303 19.4551C21.1783 19.2575 21.1816 19.0517 21.1401 18.8526C21.0689 18.5237 20.8789 18.2326 20.6064 18.0352C20.3339 17.8378 19.9981 17.7479 19.6634 17.7827C19.3287 17.8176 19.0186 17.9749 18.7927 18.2242C18.5667 18.4736 18.4408 18.7976 18.4391 19.1342C18.4381 19.3135 18.4727 19.4913 18.5407 19.6572C18.6088 19.8231 18.7091 19.9739 18.8357 20.1009C18.9624 20.2279 19.1129 20.3285 19.2786 20.397C19.4444 20.4656 19.622 20.5006 19.8014 20.5001ZM29.2158 18.2605C29.3481 18.2599 29.4796 18.2403 29.6063 18.2023C29.7824 18.1554 29.9472 18.0736 30.091 17.9618C30.2349 17.85 30.3548 17.7104 30.4438 17.5515C30.5328 17.3925 30.589 17.2173 30.609 17.0362C30.6291 16.8551 30.6127 16.6718 30.5606 16.4972C30.5086 16.3226 30.4221 16.1602 30.3063 16.0197C30.1904 15.8791 30.0475 15.7631 29.886 15.6788C29.7246 15.5944 29.5478 15.5432 29.3662 15.5284C29.1847 15.5135 29.0019 15.5352 28.8289 15.5922H28.798C28.4552 15.6988 28.1687 15.9372 28.0014 16.255C27.8342 16.5727 27.8 16.9439 27.9062 17.2869C27.9909 17.5673 28.1632 17.8132 28.398 17.9884C28.6327 18.1636 28.9174 18.259 29.2104 18.2605H29.2158ZM19.8014 31.2296C20.072 31.2307 20.3368 31.1515 20.5623 31.002C20.7879 30.8525 20.9641 30.6395 21.0685 30.3899C21.173 30.1403 21.2011 29.8653 21.1492 29.5997C21.0973 29.3341 20.9679 29.0899 20.7772 28.8979C20.5865 28.706 20.3431 28.5749 20.0779 28.5212C19.8127 28.4676 19.5375 28.4939 19.2872 28.5967C19.0369 28.6995 18.8227 28.8742 18.6717 29.0988C18.5207 29.3233 18.4398 29.5876 18.4391 29.8582V29.8764C18.4393 30.0548 18.4748 30.2314 18.5434 30.3961C18.6121 30.5607 18.7126 30.7102 18.8392 30.8359C18.9657 30.9617 19.1159 31.0612 19.281 31.1287C19.4461 31.1963 19.623 31.2306 19.8014 31.2296ZM38.9481 77.2919C38.6762 77.0772 38.3328 76.9743 37.9877 77.0038C37.6425 77.0334 37.3217 77.1934 37.0903 77.4511C36.8589 77.7089 36.7344 78.0451 36.7421 78.3914C36.7498 78.7377 36.8891 79.0681 37.1317 79.3153L38.0581 78.3163L37.1353 79.319C37.404 79.5393 37.7467 79.6487 38.0933 79.6248C38.44 79.6008 38.7643 79.4453 39.0001 79.19C39.2359 78.9348 39.3652 78.5991 39.3616 78.2517C39.358 77.9042 39.2218 77.5712 38.9808 77.3209L38.9481 77.2919ZM50.5549 36.3283C50.5543 35.9675 50.4114 35.6215 50.1571 35.3656L47.5924 32.799C47.336 32.5443 46.9893 32.4013 46.6279 32.4012C46.2669 32.401 45.9207 32.5441 45.6652 32.799L43.1059 35.3619C42.8503 35.6172 42.7066 35.9634 42.7063 36.3246V40.2154H38.692C38.3311 40.2152 37.9848 40.3583 37.7293 40.6132L35.1682 43.1743C34.9129 43.43 34.7696 43.7766 34.7696 44.1379C34.7696 44.4992 34.9129 44.8458 35.1682 45.1015L37.7293 47.6645C37.9855 47.9196 38.3322 48.0632 38.6938 48.0641H42.7063V51.9494C42.7063 52.3111 42.85 52.6581 43.1059 52.9139L45.6688 55.4768C45.9242 55.7322 46.2704 55.8759 46.6315 55.8764C46.9931 55.8756 47.3398 55.732 47.596 55.4768L50.1571 52.9139C50.4118 52.6574 50.5548 52.3108 50.5549 51.9494V48.0622H54.3131C54.6747 48.0614 55.0214 47.9178 55.2776 47.6626L57.8387 45.0997C58.094 44.8439 58.2373 44.4974 58.2373 44.1361C58.2373 43.7748 58.094 43.4282 57.8387 43.1725L55.2776 40.6114C55.0221 40.3565 54.6758 40.2134 54.3149 40.2136H50.5549V36.3283ZM53.7518 42.9436L54.9525 44.1424L53.7518 45.3431H49.1926C48.8313 45.3431 48.4848 45.4866 48.2293 45.7421C47.9739 45.9976 47.8303 46.3441 47.8303 46.7054V51.3917L46.6315 52.5924L45.4309 51.3917V46.7054C45.4309 46.3441 45.2873 45.9976 45.0318 45.7421C44.7764 45.4866 44.4299 45.3431 44.0686 45.3431H39.2533L38.0526 44.1388L39.2533 42.94H44.0686C44.4299 42.94 44.7764 42.7965 45.0318 42.541C45.2873 42.2855 45.4309 41.939 45.4309 41.5777V36.8895L46.6315 35.6889L47.8303 36.8895V41.5777C47.8303 41.939 47.9739 42.2855 48.2293 42.541C48.4848 42.7965 48.8313 42.94 49.1926 42.94L53.7518 42.9436ZM47.2291 13.7122C47.0101 13.5735 46.7563 13.4998 46.4971 13.4998C46.2379 13.4998 45.984 13.5735 45.7651 13.7122C43.7776 14.977 41.7206 16.1292 39.6038 17.1634C34.9476 19.441 30.0287 21.137 24.9581 22.213C24.6526 22.2772 24.3784 22.4445 24.1816 22.687C23.9848 22.9294 23.8774 23.2321 23.8774 23.5444V37.1075C23.8774 53.388 31.6643 68.8583 44.7043 78.4907L45.687 79.2172C45.9215 79.3907 46.2054 79.4843 46.4971 79.4843C46.7888 79.4843 47.0727 79.3907 47.3072 79.2172L48.2899 78.4907C61.3299 68.8637 69.1168 53.388 69.1168 37.1075V23.548C69.1168 23.2358 69.0094 22.933 68.8126 22.6906C68.6158 22.4482 68.3416 22.2808 68.036 22.2166C62.9704 21.1395 58.0565 19.4436 53.4049 17.167C51.2831 16.1322 49.2212 14.9788 47.2291 13.7122ZM66.3922 37.1111C66.3922 52.5306 59.0194 67.1817 46.6715 76.3037L46.4898 76.4327L46.3082 76.3037C33.9566 67.1817 26.5875 52.5306 26.5875 37.1111V24.6433C31.5036 23.5169 36.2744 21.8306 40.8063 19.6173C42.7444 18.6692 44.6571 17.6193 46.5025 16.4713C48.3482 17.6134 50.2492 18.6634 52.1988 19.6173C56.7243 21.8298 61.4883 23.5167 66.3976 24.6451L66.3922 37.1111ZM71.0513 52.4943C71.1628 52.5229 71.2776 52.5376 71.3928 52.5379C71.6948 52.5374 71.9881 52.4368 72.2267 52.2517C72.4654 52.0667 72.6359 51.8076 72.7115 51.5152L71.3964 51.152L72.7133 51.5007C72.806 51.1514 72.7562 50.7796 72.5748 50.4671C72.3934 50.1546 72.0953 49.9269 71.746 49.8342C71.3968 49.7414 71.025 49.7912 70.7125 49.9726C70.3999 50.154 70.1722 50.4521 70.0795 50.8014C70.0795 50.8014 70.0795 50.825 70.0795 50.8286C70.0335 51.0018 70.0222 51.1824 70.0462 51.3599C70.0702 51.5375 70.129 51.7086 70.2193 51.8634C70.3096 52.0181 70.4296 52.1535 70.5724 52.2618C70.7151 52.3701 70.8779 52.4491 71.0513 52.4943ZM78.7274 12.6496C71.5925 12.3059 64.6021 10.5137 58.182 7.38201C54.3053 5.48166 50.6778 3.11029 47.3817 0.321639C47.1358 0.113945 46.8244 0 46.5025 0C46.1807 0 45.8693 0.113945 45.6234 0.321639C42.327 3.10838 38.6995 5.47791 34.823 7.37656C28.4029 10.5082 21.4126 12.3005 14.2777 12.6441C13.9289 12.6623 13.6004 12.8135 13.3598 13.0666C13.1192 13.3197 12.9849 13.6554 12.9844 14.0046V37.1111C12.9771 46.8625 15.2575 56.4795 19.6426 65.1893C24.0276 73.8991 30.3948 81.4586 38.2324 87.2603L45.6416 92.7331C45.8898 92.9175 46.1935 93.0117 46.5025 93.0001H46.5534C46.8445 93.0003 47.1279 92.9067 47.3617 92.7331L54.7708 87.2603C62.5992 81.4601 68.9616 73.9084 73.349 65.2091C77.7262 56.4869 80.0105 46.8646 80.0207 37.1057V14.0101C80.0202 13.6609 79.8859 13.3251 79.6453 13.072C79.4047 12.8189 79.0761 12.6677 78.7274 12.6496ZM77.2961 37.1111C77.2961 55.9745 68.2704 73.9024 53.1524 85.0643L46.5025 89.9686L39.8527 85.0643C24.7347 73.897 15.709 55.9691 15.709 37.1111V15.2906C22.7668 14.7858 29.662 12.9304 36.0201 9.82508C39.755 7.99477 43.2714 5.7488 46.5025 3.1298C49.7337 5.7488 53.2501 7.99477 56.985 9.82508C63.3431 12.9304 70.2383 14.7858 77.2961 15.2906V37.1111ZM63.3951 18.1987H63.4242C63.7694 18.2991 64.1403 18.2591 64.456 18.0872C64.7718 17.9153 65.0068 17.6256 65.1099 17.2812C65.2129 16.9368 65.1757 16.5656 65.0062 16.2485C64.8368 15.9314 64.5489 15.6942 64.2052 15.5885L63.7929 16.8927L64.1962 15.5922C63.8505 15.4859 63.4768 15.5214 63.1573 15.6907C62.8378 15.86 62.5986 16.1493 62.4924 16.4949C62.3861 16.8406 62.4216 17.2143 62.5909 17.5338C62.7602 17.8533 63.0495 18.0925 63.3951 18.1987ZM72.9966 41.9591C73.0311 41.9609 73.0657 41.9609 73.1002 41.9591C73.4452 41.9581 73.777 41.8263 74.0288 41.5904C74.2806 41.3545 74.4336 41.0319 74.457 40.6876C74.457 40.6876 74.457 40.6568 74.457 40.6495C74.4695 40.382 74.4028 40.1167 74.2654 39.8868C74.1279 39.657 73.9258 39.4728 73.6842 39.3572C73.4426 39.2416 73.1723 39.1998 72.907 39.237C72.6418 39.2741 72.3934 39.3887 72.1929 39.5663C71.9925 39.7438 71.8488 39.9766 71.7798 40.2354C71.7109 40.4941 71.7197 40.7675 71.8053 41.0213C71.8909 41.2751 72.0493 41.498 72.2609 41.6622C72.4725 41.8265 72.7278 41.9247 72.9948 41.9446L72.9966 41.9591ZM54.0715 77.2773L54.0261 77.3191C53.7677 77.5678 53.6179 77.9084 53.609 78.2669C53.6002 78.6255 53.7331 78.973 53.9789 79.2342C54.2247 79.4953 54.5635 79.649 54.9219 79.6619C55.2803 79.6748 55.6293 79.5459 55.8933 79.3031C56.1572 79.0603 56.3147 78.7232 56.3317 78.3649C56.3487 78.0067 56.2237 77.6562 55.9839 77.3896C55.7441 77.1229 55.4088 76.9616 55.0507 76.9406C54.6927 76.9195 54.3409 77.0406 54.0715 77.2773ZM55.0742 78.4162L54.9724 78.3L55.0796 78.4235L55.0742 78.4162ZM62.9701 69.2815C62.753 69.1209 62.4932 69.0282 62.2234 69.015C61.9537 69.0018 61.6861 69.0688 61.4544 69.2075C61.2227 69.3461 61.0372 69.5503 60.9213 69.7942C60.8054 70.0381 60.7643 70.3109 60.8032 70.5781C60.8421 70.8454 60.9593 71.0951 61.1399 71.2959C61.3205 71.4967 61.5565 71.6395 61.8181 71.7063C62.0798 71.7732 62.3553 71.7611 62.6101 71.6716C62.8649 71.582 63.0875 71.4191 63.2498 71.2033L63.2607 71.1887C63.368 71.0449 63.4457 70.8811 63.4892 70.707C63.5327 70.5328 63.5412 70.3518 63.5142 70.1744C63.4871 69.9969 63.4251 69.8266 63.3317 69.6733C63.2383 69.5201 63.1154 69.3869 62.9701 69.2815ZM68.2994 59.9761C67.9743 59.8203 67.6008 59.7995 67.2604 59.9183C66.9201 60.0371 66.6406 60.2858 66.483 60.61L66.4685 60.6427C66.3174 60.9694 66.3018 61.3428 66.425 61.681C66.5483 62.0192 66.8005 62.2949 67.1264 62.4478C67.4524 62.6007 67.8256 62.6184 68.1645 62.4969C68.5034 62.3755 68.7805 62.1248 68.9352 61.7997L67.7055 61.213L68.9315 61.8052C69.0107 61.6437 69.0572 61.4681 69.0682 61.2886C69.0793 61.1091 69.0547 60.9291 68.996 60.7591C68.9372 60.5891 68.8455 60.4324 68.7259 60.298C68.6064 60.1636 68.4614 60.0542 68.2994 59.9761ZM73.2037 28.4977C72.9331 28.4967 72.6683 28.5759 72.4427 28.7253C72.2172 28.8748 72.041 29.0878 71.9365 29.3375C71.8321 29.5871 71.804 29.8621 71.8559 30.1276C71.9077 30.3932 72.0372 30.6374 72.2279 30.8294C72.4186 31.0214 72.662 31.1525 72.9272 31.2061C73.1924 31.2597 73.4676 31.2335 73.7179 31.1307C73.9682 31.0279 74.1824 30.8531 74.3334 30.6286C74.4843 30.404 74.5653 30.1397 74.566 29.8691V29.851C74.5658 29.6726 74.5303 29.4959 74.4617 29.3313C74.393 29.1666 74.2925 29.0171 74.1659 28.8914C74.0394 28.7657 73.8892 28.6662 73.7241 28.5986C73.559 28.5311 73.3821 28.4968 73.2037 28.4977ZM73.2037 20.5055C73.5466 20.5143 73.8803 20.3935 74.1381 20.1673C74.396 19.9411 74.5592 19.626 74.5951 19.2849C74.6311 18.9438 74.5372 18.6016 74.3322 18.3266C74.1272 18.0516 73.8261 17.8639 73.4889 17.8009H73.4798C73.2927 17.7617 73.0994 17.7622 72.9125 17.8024C72.7256 17.8427 72.5493 17.9218 72.3949 18.0346C72.2406 18.1474 72.1116 18.2914 72.0165 18.4572C71.9214 18.623 71.8622 18.807 71.8427 18.9972C71.8233 19.1874 71.844 19.3795 71.9036 19.5612C71.9632 19.7428 72.0603 19.9099 72.1886 20.0516C72.3169 20.1933 72.4736 20.3065 72.6485 20.3838C72.8234 20.461 73.0125 20.5007 73.2037 20.5001V20.5055Z" fill="#FADB9E"/>
</g>
<defs>
<clipPath id="clip0_942_1957">
<rect width="93" height="93" fill="white"/>
</clipPath>
</defs>
</svg>
