<svg width="71" height="71" viewBox="0 0 71 71" fill="none" xmlns="http://www.w3.org/2000/svg">
<g clip-path="url(#clip0_942_1950)">
<path d="M35.5 0C15.9095 0 0 15.9095 0 35.5C0 55.0905 15.9095 71 35.5 71C55.0905 71 71 55.0905 71 35.5C71 15.9095 55.0905 0 35.5 0ZM35.5 2.73623C53.6132 2.73623 68.2692 17.3868 68.2692 35.5C68.2692 53.6132 53.6132 68.2692 35.5 68.2692C17.3868 68.2692 2.73077 53.6132 2.73077 35.5C2.73077 17.3868 17.3868 2.73623 35.5 2.73623ZM35.4672 15.6637L34.4814 16.7751C30.3033 21.4638 24.5032 23.6758 17.5834 24.5223L16.3846 24.667V25.8795C16.3846 32.9249 17.8756 39.76 20.9614 45.3608C24.0472 50.9643 28.7823 55.3363 35.1095 57.2233L35.5164 57.3462L35.9205 57.2096C48.1489 53.2527 54.6154 40.3799 54.6154 25.8768V24.7872L53.5531 24.536C46.8218 22.9849 40.6147 21.1007 36.4913 16.7451L35.4672 15.6637ZM35.5328 19.3011C39.9539 23.43 45.7595 25.418 51.7727 26.8544C51.4859 39.9129 45.7732 50.8005 35.4891 54.386C30.134 52.652 26.0898 49.0064 23.3563 44.0446C20.691 39.2111 19.3693 33.1734 19.2273 26.8926C25.5491 25.9314 31.1936 23.6676 35.53 19.3011H35.5328ZM42.7912 30.9942L32.832 39.7081L28.2717 35.1532L26.341 37.0838L32.7037 43.4465L44.5935 33.0478L42.7912 30.9942Z" fill="#FCDFA5"/>
</g>
<defs>
<clipPath id="clip0_942_1950">
<rect width="71" height="71" fill="white"/>
</clipPath>
</defs>
</svg>
