<svg width="80" height="80" viewBox="0 0 80 80" fill="none" xmlns="http://www.w3.org/2000/svg">
<path d="M73.75 10H71.25V7.5C71.25 7.16848 71.1183 6.85054 70.8839 6.61612C70.6495 6.3817 70.3315 6.25 70 6.25H59.2625L55.8875 2.8625C55.6491 2.63226 55.3314 2.50247 55 2.5H13.75C13.4185 2.5 13.1005 2.6317 12.8661 2.86612C12.6317 3.10054 12.5 3.41848 12.5 3.75V27.5H6.25C5.91848 27.5 5.60054 27.6317 5.36612 27.8661C5.1317 28.1005 5 28.4185 5 28.75V42.5C5 42.8315 5.1317 43.1495 5.36612 43.3839C5.60054 43.6183 5.91848 43.75 6.25 43.75V61.25C6.25 61.5815 6.3817 61.8995 6.61612 62.1339C6.85054 62.3683 7.16848 62.5 7.5 62.5H12.5V68.75C12.5 69.0815 12.6317 69.3995 12.8661 69.6339C13.1005 69.8683 13.4185 70 13.75 70H16.25V72.5C16.25 72.8315 16.3817 73.1495 16.6161 73.3839C16.8505 73.6183 17.1685 73.75 17.5 73.75H20V76.25C20 76.5815 20.1317 76.8995 20.3661 77.1339C20.6005 77.3683 20.9185 77.5 21.25 77.5H73.75C74.0815 77.5 74.3995 77.3683 74.6339 77.1339C74.8683 76.8995 75 76.5815 75 76.25V11.25C75 10.9185 74.8683 10.6005 74.6339 10.3661C74.3995 10.1317 74.0815 10 73.75 10ZM56.25 6.7625L63.2375 13.75H56.25V6.7625ZM7.5 30H47.5V41.25H7.5V30ZM20 27.5V23.75C20 23.4185 20.1317 23.1005 20.3661 22.8661C20.6005 22.6317 20.9185 22.5 21.25 22.5H33.75C34.0815 22.5 34.3995 22.6317 34.6339 22.8661C34.8683 23.1005 35 23.4185 35 23.75V27.5H20ZM30 43.75V50H25V43.75H30ZM8.75 60V43.75H22.5V51.25C22.5 51.5815 22.6317 51.8995 22.8661 52.1339C23.1005 52.3683 23.4185 52.5 23.75 52.5H31.25C31.5815 52.5 31.8995 52.3683 32.1339 52.1339C32.3683 51.8995 32.5 51.5815 32.5 51.25V43.75H46.25V60H8.75ZM15 67.5V62.5H47.5C47.8315 62.5 48.1495 62.3683 48.3839 62.1339C48.6183 61.8995 48.75 61.5815 48.75 61.25V43.75C49.0815 43.75 49.3995 43.6183 49.6339 43.3839C49.8683 43.1495 50 42.8315 50 42.5V28.75C50 28.4185 49.8683 28.1005 49.6339 27.8661C49.3995 27.6317 49.0815 27.5 48.75 27.5H37.5V23.75C37.497 22.7564 37.101 21.8042 36.3984 21.1016C35.6958 20.399 34.7436 20.003 33.75 20H21.25C20.2564 20.003 19.3042 20.399 18.6016 21.1016C17.899 21.8042 17.503 22.7564 17.5 23.75V27.5H15V5H53.75V15C53.75 15.3315 53.8817 15.6495 54.1161 15.8839C54.3505 16.1183 54.6685 16.25 55 16.25H65V67.5H15ZM18.75 71.25V70H66.25C66.5815 70 66.8995 69.8683 67.1339 69.6339C67.3683 69.3995 67.5 69.0815 67.5 68.75V15C67.4975 14.6686 67.3677 14.3509 67.1375 14.1125L61.7625 8.75H68.75V71.25H18.75ZM72.5 75H22.5V73.75H70C70.3315 73.75 70.6495 73.6183 70.8839 73.3839C71.1183 73.1495 71.25 72.8315 71.25 72.5V12.5H72.5V75Z" fill="#FADB9E"/>
<path d="M28.75 46.25H26.25V48.75H28.75V46.25Z" fill="#FADB9E"/>
</svg>
