<svg width="70" height="70" viewBox="0 0 70 70" fill="none" xmlns="http://www.w3.org/2000/svg">
<path d="M33.9063 29.5312H36.0938C36.674 29.5312 37.2304 29.7617 37.6406 30.172C38.0509 30.5822 38.2813 31.1386 38.2813 31.7187C38.2813 32.0088 38.3966 32.287 38.6017 32.4921C38.8068 32.6973 39.085 32.8125 39.3751 32.8125C39.6652 32.8125 39.9434 32.6973 40.1485 32.4921C40.3536 32.287 40.4688 32.0088 40.4688 31.7187C40.4688 30.5584 40.0079 29.4456 39.1874 28.6252C38.367 27.8047 37.2542 27.3437 36.0938 27.3437V26.25C36.0938 25.9599 35.9786 25.6817 35.7735 25.4766C35.5684 25.2715 35.2902 25.1562 35.0001 25.1562C34.71 25.1562 34.4318 25.2715 34.2267 25.4766C34.0216 25.6817 33.9063 25.9599 33.9063 26.25V27.3437C32.746 27.3437 31.6332 27.8047 30.8127 28.6252C29.9923 29.4456 29.5313 30.5584 29.5313 31.7187C29.5313 32.8791 29.9923 33.9919 30.8127 34.8123C31.6332 35.6328 32.746 36.0937 33.9063 36.0937H36.0938C36.674 36.0937 37.2304 36.3242 37.6406 36.7344C38.0509 37.1447 38.2813 37.7011 38.2813 38.2812C38.2813 38.8614 38.0509 39.4178 37.6406 39.828C37.2304 40.2383 36.674 40.4687 36.0938 40.4687H33.9063C33.3262 40.4687 32.7698 40.2383 32.3595 39.828C31.9493 39.4178 31.7188 38.8614 31.7188 38.2812C31.7188 37.9912 31.6036 37.713 31.3985 37.5078C31.1934 37.3027 30.9152 37.1875 30.6251 37.1875C30.335 37.1875 30.0568 37.3027 29.8517 37.5078C29.6466 37.713 29.5313 37.9912 29.5313 38.2812C29.5313 39.4416 29.9923 40.5544 30.8127 41.3748C31.6332 42.1953 32.746 42.6562 33.9063 42.6562V43.75C33.9063 44.0401 34.0216 44.3183 34.2267 44.5234C34.4318 44.7285 34.71 44.8437 35.0001 44.8437C35.2902 44.8437 35.5684 44.7285 35.7735 44.5234C35.9786 44.3183 36.0938 44.0401 36.0938 43.75V42.6562C37.2542 42.6562 38.367 42.1953 39.1874 41.3748C40.0079 40.5544 40.4688 39.4416 40.4688 38.2812C40.4688 37.1209 40.0079 36.0081 39.1874 35.1877C38.367 34.3672 37.2542 33.9062 36.0938 33.9062H33.9063C33.3262 33.9062 32.7698 33.6758 32.3595 33.2655C31.9493 32.8553 31.7188 32.2989 31.7188 31.7187C31.7188 31.1386 31.9493 30.5822 32.3595 30.172C32.7698 29.7617 33.3262 29.5312 33.9063 29.5312ZM54.2348 17.5C50.6529 16.7951 47.1906 15.5803 43.9535 13.8928C41.4785 12.5993 39.1537 11.0368 37.0213 9.23343C36.4565 8.75092 35.7419 8.47914 34.9993 8.46438C34.2566 8.44962 33.5317 8.6928 32.9482 9.1525C30.7635 10.8479 28.4285 12.3401 25.9723 13.6106C22.6915 15.3068 19.2162 16.5967 15.6232 17.4519C14.9089 17.623 14.2735 18.0306 13.82 18.6083C13.3665 19.1861 13.1216 19.9002 13.1251 20.6347V33.8428C13.1573 40.1146 15.3026 46.1924 19.2146 51.0947C23.1266 55.997 28.5768 59.4375 34.6851 60.8606C34.865 60.9132 35.0553 60.92 35.2385 60.8803C41.3644 59.4717 46.8347 56.0347 50.7621 51.1269C54.6895 46.2192 56.8436 40.1285 56.8751 33.8428V20.7178C56.875 19.9589 56.6119 19.2234 56.1305 18.6367C55.649 18.0499 54.9791 17.6482 54.2348 17.5ZM54.6876 33.8428C54.6584 39.5894 52.7028 45.1602 49.1337 49.6641C45.5645 54.168 40.588 57.3447 35.0001 58.6862C29.4124 57.3444 24.4361 54.1675 20.867 49.6637C17.2979 45.1599 15.3421 39.5893 15.3126 33.8428V20.6347C15.3104 20.3925 15.39 20.1567 15.5385 19.9654C15.687 19.7741 15.8956 19.6384 16.1307 19.5803C19.8964 18.6831 23.539 17.3315 26.9785 15.5553C29.5531 14.2225 32.0009 12.6578 34.2913 10.8806C34.4798 10.7338 34.713 10.656 34.9518 10.6604C35.1907 10.6648 35.4209 10.751 35.6038 10.9047C37.8602 12.811 40.3191 14.4638 42.9363 15.8331C46.3606 17.6176 50.0234 18.9009 53.8126 19.6437C54.0602 19.6913 54.2834 19.8241 54.4432 20.0192C54.6031 20.2142 54.6896 20.4591 54.6876 20.7112V33.8428ZM35.0001 20.7812C32.1879 20.7812 29.4388 21.6152 27.1006 23.1775C24.7623 24.7399 22.9399 26.9606 21.8637 29.5587C20.7875 32.1569 20.5059 35.0158 21.0545 37.7739C21.6032 40.5321 22.9574 43.0656 24.9459 45.0542C26.9344 47.0427 29.468 48.3969 32.2261 48.9455C34.9843 49.4942 37.8432 49.2126 40.4414 48.1364C43.0395 47.0602 45.2602 45.2378 46.8225 42.8995C48.3849 40.5612 49.2188 37.8122 49.2188 35C49.2142 31.2304 47.7147 27.6165 45.0491 24.9509C42.3836 22.2854 38.7697 20.7859 35.0001 20.7812ZM35.0001 47.0312C32.6205 47.0312 30.2944 46.3256 28.3159 45.0036C26.3374 43.6816 24.7953 41.8026 23.8847 39.6042C22.974 37.4057 22.7358 34.9866 23.2 32.6528C23.6642 30.319 24.8101 28.1752 26.4927 26.4926C28.1753 24.81 30.3191 23.6642 32.6529 23.1999C34.9867 22.7357 37.4058 22.974 39.6042 23.8846C41.8027 24.7952 43.6817 26.3373 45.0037 28.3158C46.3257 30.2943 47.0313 32.6204 47.0313 35C47.0273 38.1896 45.7584 41.2475 43.503 43.5029C41.2476 45.7583 38.1897 47.0272 35.0001 47.0312ZM60.7754 12.6197C55.8422 11.7036 51.073 10.058 46.6245 7.73718C43.6596 6.18541 40.8561 4.34326 38.2551 2.23781C37.3094 1.48696 36.1404 1.07267 34.933 1.06039C33.7255 1.0481 32.5484 1.43854 31.5876 2.17C28.9616 4.12347 26.1817 5.86093 23.2751 7.36531C18.78 9.68794 14.0101 11.4349 9.07821 12.565C8.3592 12.7307 7.71814 13.1365 7.2608 13.7155C6.80347 14.2945 6.55718 15.0122 6.56259 15.75V33.6875C6.60475 41.8676 9.40522 49.7944 14.511 56.1855C19.6168 62.5767 26.7294 67.0586 34.6982 68.9062C34.7965 68.9339 34.898 68.9479 35.0001 68.9478C35.0803 68.9476 35.1602 68.9388 35.2385 68.9216C43.2222 67.0867 50.3517 62.6082 55.4704 56.2125C60.5891 49.8168 63.3967 41.8792 63.4376 33.6875V15.8353C63.439 15.0728 63.1736 14.3339 62.6873 13.7466C62.2011 13.1593 61.5247 12.7606 60.7754 12.6197ZM61.2501 33.6875C61.2083 41.3383 58.5979 48.7533 53.8379 54.7431C49.0778 60.7329 42.4438 64.9503 35.0001 66.7187C27.5566 64.9499 20.9228 60.7324 16.1628 54.7427C11.4028 48.753 8.79229 41.3382 8.75009 33.6875V15.75C8.74649 15.5066 8.82604 15.2692 8.97558 15.0771C9.12513 14.885 9.33572 14.7497 9.57259 14.6934C14.6818 13.5225 19.6234 11.7139 24.2813 9.31C27.2921 7.75024 30.1715 5.94914 32.8913 3.92437C33.4622 3.48332 34.1639 3.24515 34.8853 3.24753C35.6067 3.24991 36.3068 3.49269 36.8748 3.9375C39.5889 6.13385 42.5141 8.05584 45.6073 9.67531C50.2496 12.097 55.2268 13.8133 60.3751 14.7678C60.6237 14.8134 60.8481 14.9456 61.0083 15.1411C61.1686 15.3366 61.2542 15.5826 61.2501 15.8353V33.6875Z" fill="#D2AC69"/>
</svg>
