<svg width="55" height="60" viewBox="0 0 55 60" fill="none" xmlns="http://www.w3.org/2000/svg">
<path d="M27.0785 0.00387507L25.6796 1.57325C19.7509 8.2305 11.5204 11.3731 1.70113 12.5705L0 12.7759V14.4925C0 24.49 2.11575 34.1891 6.4945 42.1406C10.8733 50.0921 17.5925 56.296 26.5709 58.9736L27.1482 59.148L27.7218 58.9504C45.074 53.3432 54.25 35.0765 54.25 14.4925V12.9503L52.7426 12.5938C43.1908 10.3927 34.3829 7.719 28.5316 1.53837L27.0785 0V0.00387507ZM27.1715 5.15763C33.4451 11.0166 41.6834 13.8376 50.2161 15.8759C49.8092 34.4023 41.7027 49.8557 27.1095 54.9436C19.5106 52.483 13.7718 47.3099 9.89287 40.269C6.11087 33.4102 4.23537 24.8388 4.03387 15.9263C13.0045 14.5661 21.0141 11.3538 27.1676 5.15763H27.1715ZM37.4713 21.7465L23.3391 34.1194L16.8679 27.6559L14.1282 30.3955L23.157 39.4242L40.0287 24.6644L37.4713 21.7465Z" fill="#D2AC69"/>
</svg>
