<svg width="19" height="19" viewBox="0 0 19 19" fill="none" xmlns="http://www.w3.org/2000/svg">
<path d="M17.3112 13.3818C16.5983 12.6494 14.5719 11.2773 13.2438 11.2773C12.9362 11.2773 12.6676 11.3457 12.4479 11.4873C11.7985 11.9023 11.2809 12.2246 11.0319 12.2246C10.8952 12.2246 10.7487 12.1025 10.4264 11.8242L10.3727 11.7754C9.47914 10.999 9.28871 10.7988 8.94203 10.4375L8.85414 10.3447C8.79066 10.2812 8.73695 10.2227 8.68324 10.1689C8.38051 9.85645 8.16078 9.63184 7.38441 8.75293L7.35023 8.71387C6.97914 8.29394 6.735 8.02051 6.72035 7.82031C6.7057 7.625 6.8766 7.30762 7.31117 6.7168C7.83851 6.00391 7.85804 5.125 7.37465 4.10449C6.9889 3.29883 6.35902 2.52734 5.80238 1.84863L5.75355 1.79004C5.27504 1.2041 4.7184 0.911133 4.09828 0.911133C3.4098 0.911133 2.83851 1.28223 2.53578 1.47754C2.51136 1.49219 2.48695 1.51172 2.46254 1.52637C1.78383 1.95605 1.29066 2.54688 1.10511 3.14746C0.826794 4.05078 0.641248 5.22266 1.97426 7.65918C3.1266 9.76856 4.17152 11.1846 5.83168 12.8887C7.39418 14.4902 8.08754 15.0078 9.64027 16.1309C11.3688 17.3809 13.0289 18.0986 14.1911 18.0986C15.2702 18.0986 16.1198 18.0986 17.3307 16.6387C18.6002 15.1055 18.0729 14.168 17.3112 13.3818Z" fill="#D2AC69"/>
</svg>
